<?xml version="1.0" encoding="utf-8"?>
<!-- Generator: Adobe Illustrator 22.1.0, SVG Export Plug-In . SVG Version: 6.00 Build 0)  -->
<svg version="1.1" id="Layer_1" xmlns="http://www.w3.org/2000/svg" xmlns:xlink="http://www.w3.org/1999/xlink" x="0px" y="0px"
	 width="480px" height="480px" viewBox="0 0 480 480" enable-background="new 0 0 480 480" xml:space="preserve">
<rect x="0" y="0" fill="#7289DA" width="480" height="480"/>
<path fill="#FFFFFF" d="M358.923,154.863c-38.92-29.19-75.949-28.379-75.949-28.379l-3.784,4.325
	c45.948,14.054,67.3,34.325,67.3,34.325c-28.109-15.406-55.678-22.974-81.354-25.947c-19.46-2.162-38.11-1.622-54.597,0.541
	c-1.622,0-2.973,0.27-4.595,0.541c-9.46,0.811-32.434,4.324-61.354,17.028c-10,4.595-15.946,7.838-15.946,7.838
	s22.433-21.352,71.084-35.407l-2.703-3.243c0,0-37.028-0.811-75.949,28.379c0,0-38.92,70.543-38.92,157.574
	c0,0,22.703,39.191,82.435,41.082c0,0,10-12.163,18.109-22.433c-34.325-10.271-47.299-31.893-47.299-31.893s2.703,1.892,7.568,4.595
	c0.27,0.27,0.541,0.54,1.081,0.811c0.811,0.541,1.622,0.811,2.433,1.351c6.757,3.784,13.514,6.757,19.73,9.189
	c11.082,4.325,24.325,8.649,39.731,11.622c20.271,3.784,44.056,5.135,70.003,0.27c12.703-2.162,25.677-5.946,39.191-11.622
	c9.46-3.514,20.001-8.649,31.082-15.947c0,0-13.514,22.163-48.921,32.163c8.108,10.271,17.839,21.893,17.839,21.893
	c59.732-1.892,82.706-41.082,82.706-41.082C397.844,225.406,358.923,154.863,358.923,154.863z M189.458,287.3
	c-15.136,0-27.569-13.514-27.569-30.001c0-16.487,12.163-30.001,27.569-30.001c15.406,0,27.839,13.514,27.568,30.001
	C217.026,273.786,204.863,287.3,189.458,287.3z M288.11,287.3c-15.136,0-27.569-13.514-27.569-30.001
	c0-16.487,12.163-30.001,27.569-30.001c15.406,0,27.568,13.514,27.568,30.001C315.678,273.786,303.516,287.3,288.11,287.3z"/>
</svg>
